<svg version="1.1" viewBox="0.0 0.0 218.1994750656168 187.6010498687664" fill="none" stroke="none" stroke-linecap="square" stroke-miterlimit="10" xmlns:xlink="http://www.w3.org/1999/xlink" xmlns="http://www.w3.org/2000/svg"><clipPath id="p.0"><path d="m0 0l218.19948 0l0 187.60104l-218.19948 0l0 -187.60104z" clip-rule="nonzero"/></clipPath><g clip-path="url(#p.0)"><path fill="#000000" fill-opacity="0.0" d="m0 0l218.19948 0l0 187.60104l-218.19948 0z" fill-rule="evenodd"/><path fill="#b8a66e" d="m144.0 35.03937l0 0c0 -19.351711 15.955582 -35.03937 35.637802 -35.03937l0 0c9.451721 0 18.516342 3.6916373 25.199722 10.262794c6.68338 6.5711565 10.438065 15.483558 10.438065 24.776577l0 0c0 19.351707 -15.955582 35.03937 -35.637787 35.03937l0 0c-19.68222 0 -35.637802 -15.687664 -35.637802 -35.03937z" fill-rule="evenodd"/><path fill="#ffe69c" d="m156.83014 35.666996l0 0c0 -12.819965 10.568909 -23.212599 23.606308 -23.212599l0 0c6.2607727 0 12.265137 2.4456062 16.69217 6.798813c4.4270477 4.3532066 6.9141235 10.2574215 6.9141235 16.413786l0 0c0 12.819965 -10.568893 23.212597 -23.606293 23.212597l0 0c-13.037399 0 -23.606308 -10.392632 -23.606308 -23.212597z" fill-rule="evenodd"/><path fill="#b8a66e" d="m0 35.03937l0 0c0 -19.351711 15.955585 -35.03937 35.637794 -35.03937l0 0c9.451733 0 18.516346 3.6916373 25.199726 10.262794c6.683384 6.5711565 10.438068 15.483558 10.438068 24.776577l0 0c0 19.351707 -15.955582 35.03937 -35.637794 35.03937l0 0c-19.682209 0 -35.637794 -15.687664 -35.637794 -35.03937z" fill-rule="evenodd"/><path fill="#ffe69c" d="m12.830144 35.666996l0 0c0 -12.819965 10.5689 -23.212599 23.6063 -23.212599l0 0c6.2607803 0 12.265133 2.4456062 16.692173 6.798813c4.42704 4.3532066 6.9141273 10.2574215 6.9141273 16.413786l0 0c0 12.819965 -10.568901 23.212597 -23.6063 23.212597l0 0c-13.037399 0 -23.6063 -10.392632 -23.6063 -23.212597z" fill-rule="evenodd"/><path fill="#e0c882" d="m7.8871393 90.56693l0 0c0 -50.018738 44.82793 -90.56693 100.125984 -90.56693l0 0c55.29805 0 100.12599 40.548195 100.12599 90.56693l0 0c0 50.01873 -44.82794 90.56693 -100.12599 90.56693l0 0c-55.298054 0 -100.125984 -40.548203 -100.125984 -90.56693z" fill-rule="evenodd"/><path fill="#5b0f00" d="m72.01575 82.56693l0 0c0 -6.418686 5.203369 -11.622047 11.622047 -11.622047l0 0c3.0823593 0 6.038475 1.2244568 8.218033 3.4040146c2.1795502 2.1795578 3.4040146 5.1356735 3.4040146 8.218033l0 0c0 6.4186783 -5.203369 11.622047 -11.622047 11.622047l0 0c-6.4186783 0 -11.622047 -5.203369 -11.622047 -11.622047z" fill-rule="evenodd"/><path fill="#5b0f00" d="m120.01575 82.56693l0 0c0 -6.418686 5.203369 -11.622047 11.622055 -11.622047l0 0c3.0823517 0 6.0384674 1.2244568 8.218018 3.4040146c2.1795654 2.1795578 3.4040222 5.1356735 3.4040222 8.218033l0 0c0 6.4186783 -5.203369 11.622047 -11.62204 11.622047l0 0c-6.418686 0 -11.622055 -5.203369 -11.622055 -11.622047z" fill-rule="evenodd"/><path fill="#ffffff" d="m77.02362 79.884514l0 0c0 -1.7916641 1.4242325 -3.2440948 3.1811066 -3.2440948l0 0c0.84368134 0 1.6528015 0.34178925 2.2493744 0.9501724c0.5965729 0.6083908 0.93172455 1.4335327 0.93172455 2.2939224l0 0c0 1.7916641 -1.4242249 3.2440948 -3.181099 3.2440948l0 0c-1.7568741 0 -3.1811066 -1.4524307 -3.1811066 -3.2440948z" fill-rule="evenodd"/><path fill="#ffffff" d="m125.02362 79.884514l0 0c0 -1.7916641 1.4242325 -3.2440948 3.1811066 -3.2440948l0 0c0.8436737 0 1.6528015 0.34178925 2.2493744 0.9501724c0.5965729 0.6083908 0.9317322 1.4335327 0.9317322 2.2939224l0 0c0 1.7916641 -1.4242401 3.2440948 -3.1811066 3.2440948l0 0c-1.7568741 0 -3.1811066 -1.4524307 -3.1811066 -3.2440948z" fill-rule="evenodd"/><path fill="#ffe69c" d="m63.572178 134.24934l0 0c0 -17.673111 19.896893 -32.0 44.440945 -32.0l0 0c24.544052 0 44.44095 14.326889 44.44095 32.0l0 0c0 17.673111 -19.896896 32.0 -44.44095 32.0l0 0c-24.544052 0 -44.440945 -14.326889 -44.440945 -32.0z" fill-rule="evenodd"/><path fill="#000000" fill-opacity="0.0" d="m107.93924 142.90042l0 0c-1.2345963 7.5839386 -7.900284 13.077362 -15.580399 12.840332c-7.6801147 -0.23704529 -13.994362 -6.1310577 -14.758926 -13.776688l15.231125 -1.5231171z" fill-rule="evenodd"/><path fill="#000000" fill-opacity="0.0" d="m107.93924 142.90042l0 0c-1.2345963 7.5839386 -7.900284 13.077362 -15.580399 12.840332c-7.6801147 -0.23704529 -13.994362 -6.1310577 -14.758926 -13.776688" fill-rule="evenodd"/><path stroke="#000000" stroke-width="4.0" stroke-linejoin="round" stroke-linecap="butt" d="m107.93924 142.90042l0 0c-1.2345963 7.5839386 -7.900284 13.077362 -15.580399 12.840332c-7.6801147 -0.23704529 -13.994362 -6.1310577 -14.758926 -13.776688" fill-rule="evenodd"/><path fill="#000000" fill-opacity="0.0" d="m138.30342 142.90042l0 0c-1.2346039 7.5839386 -7.900299 13.077362 -15.580406 12.840332c-7.6801224 -0.23704529 -13.994362 -6.1310577 -14.758926 -13.776688l15.231125 -1.5231171z" fill-rule="evenodd"/><path fill="#000000" fill-opacity="0.0" d="m138.30342 142.90042l0 0c-1.2346039 7.5839386 -7.900299 13.077362 -15.580406 12.840332c-7.6801224 -0.23704529 -13.994362 -6.1310577 -14.758926 -13.776688" fill-rule="evenodd"/><path stroke="#000000" stroke-width="4.0" stroke-linejoin="round" stroke-linecap="butt" d="m138.30342 142.90042l0 0c-1.2346039 7.5839386 -7.900299 13.077362 -15.580406 12.840332c-7.6801224 -0.23704529 -13.994362 -6.1310577 -14.758926 -13.776688" fill-rule="evenodd"/><path fill="#000000" fill-opacity="0.0" d="m108.01312 133.0l0 9.763779" fill-rule="evenodd"/><path stroke="#000000" stroke-width="4.0" stroke-linejoin="round" stroke-linecap="butt" d="m108.01312 133.0l0 9.763779" fill-rule="evenodd"/><path fill="#5b0f00" d="m96.391075 122.24639l0 0c0 -6.4186783 5.203369 -11.622047 11.622047 -11.622047l0 0c3.0823593 0 6.038475 1.2244644 8.218033 3.4040222c2.1795502 2.1795502 3.4040146 5.135666 3.4040146 8.218025l0 0c0 6.4186783 -5.203369 11.622047 -11.622047 11.622047l0 0c-6.4186783 0 -11.622047 -5.203369 -11.622047 -11.622047z" fill-rule="evenodd"/><path fill="#ff0000" d="m9.748032 74.26509l0 0c0 -27.622932 44.14402 -50.015747 98.59843 -50.015747c54.4544 0 98.59843 22.392815 98.59843 50.015747l0 0c-55.205124 -26.687737 -141.99173 -26.687737 -197.19685 0z" fill-rule="evenodd"/><path fill="#ffffff" d="m9.039371 74.26509l0 0c0 -27.622932 44.144016 -50.015747 98.59843 -50.015747c54.454414 0 98.59843 22.392815 98.59843 50.015747l0 0c-16.87259 -20.025784 -55.66617 -33.015896 -98.59843 -33.015896c-42.932266 0 -81.72584 12.990112 -98.59843 33.015896z" fill-rule="evenodd"/><path fill="#ffffff" d="m9.039371 74.26509l0 0c0 -27.622932 44.144016 -50.015747 98.59843 -50.015747c54.454414 0 98.59843 22.392815 98.59843 50.015747l0 0c-19.415237 -18.474846 -57.32625 -30.01595 -98.59843 -30.01595c-41.27218 0 -79.18318 11.541103 -98.59843 30.01595z" fill-rule="evenodd"/><path fill="#1155cc" d="m9.039371 74.26509l0 0c0 -27.622932 44.144016 -50.015747 98.59843 -50.015747c54.454414 0 98.59843 22.392815 98.59843 50.015747l0 0c-10.373001 -23.394138 -51.328278 -40.0156 -98.59843 -40.0156c-47.270153 0 -88.225426 16.62146 -98.59843 40.0156z" fill-rule="evenodd"/></g></svg>